<svg viewBox="0 0 72 72" xmlns="http://www.w3.org/2000/svg" role="img" aria-label="Логотип">
  <path d="M17 42V31a19 19 0 0 1 38 0v11h-7V31a12 12 0 0 0-24 0v11z" fill="#062f66"/>
  <path d="M21 42V30a15 15 0 0 1 30 0v12" fill="none" stroke="#4aa3ff" stroke-width="2.7" stroke-linecap="round"/>
  <path d="M12 47c9-2 17 .5 24 8 7-7.5 15-10 24-8v7c-9-1.5-17 1-24 8-7-7-15-9.5-24-8z" fill="#ffffff"/>
  <path d="M12 47c9-2 17 .5 24 8 7-7.5 15-10 24-8" fill="none" stroke="#4aa3ff" stroke-width="3" stroke-linecap="round"/>
  <path d="M12 54c9-1.5 17 1 24 8 7-7 15-9.5 24-8" fill="none" stroke="#062f66" stroke-width="4" stroke-linecap="round"/>
  <path d="M26 25h20M26 33h20M36 17v23M26 25v15M46 25v15" fill="none" stroke="#4aa3ff" stroke-width="2" stroke-linecap="round"/>
  <circle cx="36" cy="38" r="4" fill="#f7b500"/>
  <circle cx="27" cy="48" r="4" fill="#f7b500"/>
  <circle cx="45" cy="48" r="4" fill="#f7b500"/>
  <path d="M33.5 41.5 29.5 45.5M38.5 41.5 42.5 45.5M31.5 48h9" stroke="#2d8be8" stroke-width="2.8" stroke-linecap="round"/>
</svg>
